<svg xmlns="http://www.w3.org/2000/svg" width="495" height="107" fill="none" viewBox="0 0 495 107"><path fill="#00255d" d="M21.052 38.055a36.4 36.4 0 0 0-2.102 12.237c0 20.17 16.359 36.52 36.537 36.52 20.18 0 36.538-16.35 36.538-36.52 0-11.633-5.441-21.995-13.919-28.683l-5.43 4.151c7.724 5.417 12.772 14.385 12.772 24.531 0 16.54-13.414 29.947-29.96 29.947-16.547 0-29.961-13.408-29.961-29.947 0-4.355.93-8.494 2.603-12.228z"/><path fill="#00255d" d="M42.744.025 96.892 0 53.884 32.884 0 32.819z"/><path fill="#00255d" d="m0 32.82 5.848-.003V59.11H.002zM319.88 31.842v46.322q0 28.836-29.464 28.836-7.877 0-14.936-2.045-7.06-1.942-11.663-5.727l5.729-9.612q3.58 2.966 9.003 4.704 5.524 1.84 11.151 1.84 9.003 0 13.197-4.09 4.195-4.09 4.195-12.475v-2.863q-3.274 3.58-7.98 5.42t-10.333 1.84q-7.774 0-14.118-3.272-6.24-3.375-9.923-9.407-3.58-6.034-3.581-13.805 0-7.772 3.581-13.702 3.683-6.034 9.923-9.306 6.344-3.272 14.118-3.272 5.934 0 10.742 1.943 4.91 1.943 8.185 5.93v-7.26zm-29.157 41.311q7.264 0 11.867-4.295 4.706-4.397 4.706-11.35 0-6.852-4.706-11.146-4.603-4.295-11.867-4.295-7.367 0-12.072 4.295-4.604 4.294-4.604 11.146 0 6.954 4.604 11.35 4.705 4.296 12.072 4.295M348.867 39.818q5.524-8.59 19.437-8.59v12.169q-1.637-.307-2.966-.307-7.469 0-11.663 4.397-4.194 4.294-4.195 12.475v26.484h-12.788V31.842h12.175zM399.723 31.228q12.072 0 18.415 5.829 6.445 5.726 6.445 17.383v32.006h-12.072V79.8q-2.352 3.578-6.752 5.522-4.296 1.84-10.435 1.84-6.138 0-10.742-2.045-4.604-2.147-7.161-5.829-2.456-3.782-2.456-8.487 0-7.362 5.423-11.76 5.525-4.499 17.289-4.499h14.118v-.818q0-5.726-3.478-8.794-3.377-3.067-10.128-3.067-4.605 0-9.106 1.431-4.399 1.432-7.468 3.988l-5.013-9.305q4.297-3.273 10.333-5.01 6.036-1.74 12.788-1.74m-1.739 46.629q4.809 0 8.491-2.147 3.786-2.25 5.32-6.34v-6.34h-13.197q-11.049 0-11.049 7.26 0 3.477 2.762 5.522t7.673 2.045M495 10.572v75.874h-12.277v-7.055q-3.171 3.885-7.877 5.828-4.603 1.944-10.231 1.943-7.876 0-14.22-3.477-6.24-3.476-9.821-9.816-3.58-6.442-3.581-14.725t3.581-14.623q3.58-6.339 9.821-9.816 6.343-3.477 14.22-3.477 5.423 0 9.924 1.84a19.96 19.96 0 0 1 7.673 5.522V10.572zm-28.85 65.649q4.603 0 8.287-2.045 3.683-2.148 5.831-6.034t2.148-8.998-2.148-8.999-5.831-5.93q-3.684-2.148-8.287-2.148t-8.287 2.148q-3.683 2.045-5.831 5.93t-2.148 8.999 2.148 8.999 5.831 6.033q3.684 2.045 8.287 2.045M155.223 32.66l-23.939 53.786h-7.468L99.978 32.66h7.571l20.154 45.81 20.359-45.81zM210.81 61.803h-45.014q.613 8.385 6.445 13.6 5.83 5.113 14.732 5.113 5.013 0 9.207-1.739 4.194-1.841 7.264-5.317l4.092 4.704q-3.58 4.294-9.003 6.544-5.32 2.25-11.765 2.25-8.286 0-14.732-3.477-6.342-3.579-9.923-9.817-3.58-6.237-3.581-14.111t3.376-14.111q3.478-6.238 9.412-9.715 6.036-3.477 13.504-3.476t13.402 3.476 9.31 9.715q3.376 6.135 3.376 14.111zm-25.986-23.315q-7.775 0-13.095 5.01-5.217 4.91-5.933 12.885h38.159q-.716-7.976-6.036-12.884-5.217-5.01-13.095-5.01M232.653 43.192q2.558-5.42 7.571-8.18 5.115-2.761 12.583-2.761v7.055l-1.739-.102q-8.492 0-13.299 5.215-4.809 5.215-4.809 14.623v27.404h-7.263V32.66h6.956z"/></svg>